{
  "accessors": [
    {
      "name": "Bolt.001-Mesh_positions",
      "componentType": 5126,
      "count": 2503,
      "min": [
        0.05951099842786789,
        3.3553459644317627,
        -0.022783000022172928
      ],
      "max": [
        0.11957599967718124,
        3.4079620838165283,
        0.022783000022172928
      ],
      "type": "VEC3",
      "bufferView": 0,
      "byteOffset": 0
    },
    {
      "name": "Bolt.001-Mesh_0_indices",
      "componentType": 5123,
      "count": 14910,
      "min": [
        0
      ],
      "max": [
        2502
      ],
      "type": "SCALAR",
      "bufferView": 2,
      "byteOffset": 0
    },
    {
      "name": "Bolt-Mesh_positions",
      "componentType": 5126,
      "count": 2503,
      "min": [
        0.05951099842786789,
        1.9051250219345093,
        -0.022783000022172928
      ],
      "max": [
        0.11957599967718124,
        1.9577410221099854,
        0.022783000022172928
      ],
      "type": "VEC3",
      "bufferView": 0,
      "byteOffset": 30036
    },
    {
      "name": "Bolt-Mesh_0_indices",
      "componentType": 5123,
      "count": 14910,
      "min": [
        0
      ],
      "max": [
        2502
      ],
      "type": "SCALAR",
      "bufferView": 2,
      "byteOffset": 29820
    },
    {
      "name": "Cylinder.001-Mesh_positions",
      "componentType": 5126,
      "count": 48,
      "min": [
        0.08783400058746338,
        1.7154099941253662,
        -0.9261190295219421
      ],
      "max": [
        0.10191500186920166,
        3.5676488876342773,
        0.9261199831962585
      ],
      "type": "VEC3",
      "bufferView": 0,
      "byteOffset": 60072
    },
    {
      "name": "Cylinder.001-Mesh_texcoords",
      "componentType": 5126,
      "count": 48,
      "min": [
        -0.20713700354099274,
        -0.20713700354099274
      ],
      "max": [
        1.2071369886398315,
        1.2071369886398315
      ],
      "type": "VEC2",
      "bufferView": 1,
      "byteOffset": 0
    },
    {
      "name": "Cylinder.001-Mesh_0_indices",
      "componentType": 5123,
      "count": 66,
      "min": [
        0
      ],
      "max": [
        39
      ],
      "type": "SCALAR",
      "bufferView": 2,
      "byteOffset": 59640
    },
    {
      "name": "Cylinder.001-Mesh_1_indices",
      "componentType": 5123,
      "count": 18,
      "min": [
        40
      ],
      "max": [
        47
      ],
      "type": "SCALAR",
      "bufferView": 2,
      "byteOffset": 59772
    },
    {
      "name": "Cylinder-Mesh_positions",
      "componentType": 5126,
      "count": 256,
      "min": [
        -0.10061399638652802,
        -2.3322789669036865,
        -0.10061399638652802
      ],
      "max": [
        0.10061399638652802,
        3.463571071624756,
        0.10061399638652802
      ],
      "type": "VEC3",
      "bufferView": 0,
      "byteOffset": 60648
    },
    {
      "name": "Cylinder-Mesh_0_indices",
      "componentType": 5123,
      "count": 1524,
      "min": [
        0
      ],
      "max": [
        255
      ],
      "type": "SCALAR",
      "bufferView": 2,
      "byteOffset": 59808
    }
  ],
  "asset": {
    "generator": "obj2gltf",
    "version": "2.0"
  },
  "buffers": [
    {
      "name": "StopSign",
      "byteLength": 136664,
      "uri": "data:application/octet-stream;base64,"
    }
  ],
  "bufferViews": [
    {
      "name": "bufferView_0",
      "buffer": 0,
      "byteLength": 63720,
      "byteOffset": 0,
      "byteStride": 12,
      "target": 34962
    },
    {
      "name": "bufferView_1",
      "buffer": 0,
      "byteLength": 384,
      "byteOffset": 63720,
      "byteStride": 8,
      "target": 34962
    },
    {
      "name": "bufferView_2",
      "buffer": 0,
      "byteLength": 62856,
      "byteOffset": 64104,
      "target": 34963
    },
    {
      "buffer": 0,
      "byteOffset": 126960,
      "byteLength": 9704
    }
  ],
  "images": [
    {
      "name": "stop",
      "mimeType": "image/png",
      "bufferView": 3
    }
  ],
  "materials": [
    {
      "name": "Material.001",
      "pbrMetallicRoughness": {
        "baseColorFactor": [
          0.47699,
          0.47699,
          0.47699,
          1
        ],
        "metallicFactor": 0,
        "roughnessFactor": 0.903921569
      },
      "emissiveFactor": [
        0,
        0,
        0
      ],
      "alphaMode": "OPAQUE",
      "doubleSided": false
    },
    {
      "name": "Material.002",
      "pbrMetallicRoughness": {
        "baseColorTexture": {
          "index": 0
        },
        "baseColorFactor": [
          1,
          1,
          1,
          1
        ],
        "metallicFactor": 0,
        "roughnessFactor": 0.903921569
      },
      "emissiveFactor": [
        0,
        0,
        0
      ],
      "alphaMode": "OPAQUE",
      "doubleSided": false
    },
    {
      "name": "Material.003",
      "pbrMetallicRoughness": {
        "baseColorTexture": {
          "index": 0
        },
        "baseColorFactor": [
          1,
          1,
          1,
          1
        ],
        "metallicFactor": 0,
        "roughnessFactor": 0.903921569
      },
      "emissiveFactor": [
        0,
        0,
        0
      ],
      "alphaMode": "OPAQUE",
      "doubleSided": false
    }
  ],
  "meshes": [
    {
      "name": "Bolt.001-Mesh",
      "primitives": [
        {
          "attributes": {
            "POSITION": 0
          },
          "indices": 1,
          "material": 0,
          "mode": 4
        }
      ]
    },
    {
      "name": "Bolt-Mesh",
      "primitives": [
        {
          "attributes": {
            "POSITION": 2
          },
          "indices": 3,
          "material": 0,
          "mode": 4
        }
      ]
    },
    {
      "name": "Cylinder.001-Mesh",
      "primitives": [
        {
          "attributes": {
            "POSITION": 4,
            "TEXCOORD_0": 5
          },
          "indices": 6,
          "material": 1,
          "mode": 4
        },
        {
          "attributes": {
            "POSITION": 4,
            "TEXCOORD_0": 5
          },
          "indices": 7,
          "material": 2,
          "mode": 4
        }
      ]
    },
    {
      "name": "Cylinder-Mesh",
      "primitives": [
        {
          "attributes": {
            "POSITION": 8
          },
          "indices": 9,
          "material": 0,
          "mode": 4
        }
      ]
    }
  ],
  "nodes": [
    {
      "name": "Bolt.001",
      "mesh": 0
    },
    {
      "name": "Bolt",
      "mesh": 1
    },
    {
      "name": "Cylinder.001",
      "mesh": 2
    },
    {
      "name": "Cylinder",
      "mesh": 3
    }
  ],
  "samplers": [
    {
      "magFilter": 9729,
      "minFilter": 9986,
      "wrapS": 10497,
      "wrapT": 10497
    }
  ],
  "scene": 0,
  "scenes": [
    {
      "nodes": [
        0,
        1,
        2,
        3
      ]
    }
  ],
  "textures": [
    {
      "name": "stop",
      "sampler": 0,
      "source": 0
    }
  ]
}
