{
  "accessors": [
    {
      "name": "Node-Mesh_positions",
      "componentType": 5126,
      "count": 9736,
      "min": [
        -2.8750600814819336,
        -14.1126127243042,
        3.573622941970825
      ],
      "max": [
        9.580978393554688,
        -5.227914810180664,
        15.340892791748047
      ],
      "type": "VEC3",
      "bufferView": 0,
      "byteOffset": 0
    },
    {
      "name": "Node-Mesh_normals",
      "componentType": 5126,
      "count": 9736,
      "min": [
        -6.259113788604736,
        -5.156139850616455,
        -6.269830226898193
      ],
      "max": [
        6.123551845550537,
        6.279222011566162,
        6.155013084411621
      ],
      "type": "VEC3",
      "bufferView": 0,
      "byteOffset": 116832
    },
    {
      "name": "Node-Mesh_texcoords",
      "componentType": 5126,
      "count": 9736,
      "min": [
        0.0017610000213608146,
        0.0039450000040233135
      ],
      "max": [
        0.8856980204582214,
        0.8770089745521545
      ],
      "type": "VEC2",
      "bufferView": 1,
      "byteOffset": 0
    },
    {
      "name": "Node-Mesh_0_indices",
      "componentType": 5123,
      "count": 55824,
      "min": [
        0
      ],
      "max": [
        9648
      ],
      "type": "SCALAR",
      "bufferView": 2,
      "byteOffset": 0
    },
    {
      "name": "Node-Mesh_1_indices",
      "componentType": 5123,
      "count": 309,
      "min": [
        9649
      ],
      "max": [
        9735
      ],
      "type": "SCALAR",
      "bufferView": 2,
      "byteOffset": 111648
    }
  ],
  "asset": {
    "generator": "obj2gltf",
    "version": "2.0"
  },
  "buffers": [
    {
      "name": "mesh",
      "byteLength": 1338236,
      "uri": "data:application/octet-stream;base64,"
    }
  ],
  "bufferViews": [
    {
      "name": "bufferView_0",
      "buffer": 0,
      "byteLength": 233664,
      "byteOffset": 0,
      "byteStride": 12,
      "target": 34962
    },
    {
      "name": "bufferView_1",
      "buffer": 0,
      "byteLength": 77888,
      "byteOffset": 233664,
      "byteStride": 8,
      "target": 34962
    },
    {
      "name": "bufferView_2",
      "buffer": 0,
      "byteLength": 112268,
      "byteOffset": 311552,
      "target": 34963
    },
    {
      "buffer": 0,
      "byteOffset": 423820,
      "byteLength": 914416
    }
  ],
  "images": [
    {
      "name": "tex_0",
      "mimeType": "image/jpeg",
      "bufferView": 3
    }
  ],
  "materials": [
    {
      "name": "material_0",
      "pbrMetallicRoughness": {
        "baseColorTexture": {
          "index": 0
        },
        "baseColorFactor": [
          1,
          1,
          1,
          1
        ],
        "metallicFactor": 0,
        "roughnessFactor": 1
      },
      "emissiveFactor": [
        0,
        0,
        0
      ],
      "alphaMode": "OPAQUE",
      "doubleSided": false
    },
    {
      "name": "material_1",
      "pbrMetallicRoughness": {
        "baseColorFactor": [
          0.501961,
          0.501961,
          0.501961,
          1
        ],
        "metallicFactor": 0,
        "roughnessFactor": 1
      },
      "emissiveFactor": [
        0,
        0,
        0
      ],
      "alphaMode": "OPAQUE",
      "doubleSided": false
    }
  ],
  "meshes": [
    {
      "name": "Node-Mesh",
      "primitives": [
        {
          "attributes": {
            "POSITION": 0,
            "NORMAL": 1,
            "TEXCOORD_0": 2
          },
          "indices": 3,
          "material": 0,
          "mode": 4
        },
        {
          "attributes": {
            "POSITION": 0,
            "NORMAL": 1,
            "TEXCOORD_0": 2
          },
          "indices": 4,
          "material": 1,
          "mode": 4
        }
      ]
    }
  ],
  "nodes": [
    {
      "name": "Node",
      "mesh": 0
    }
  ],
  "samplers": [
    {
      "magFilter": 9729,
      "minFilter": 9986,
      "wrapS": 10497,
      "wrapT": 10497
    }
  ],
  "scene": 0,
  "scenes": [
    {
      "nodes": [
        0
      ]
    }
  ],
  "textures": [
    {
      "name": "tex_0",
      "sampler": 0,
      "source": 0
    }
  ]
}
