{
  "accessors": [
    {
      "name": "Stopsign_Cube.007-Mesh_positions",
      "componentType": 5126,
      "count": 24,
      "min": [
        2.8556020259857178,
        0.37383800745010376,
        1.0639090538024902
      ],
      "max": [
        3.045931100845337,
        0.5217710137367249,
        2.317821979522705
      ],
      "type": "VEC3",
      "bufferView": 0,
      "byteOffset": 0
    },
    {
      "name": "Stopsign_Cube.007-Mesh_normals",
      "componentType": 5126,
      "count": 24,
      "min": [
        -1,
        -1,
        -1
      ],
      "max": [
        1,
        1,
        1
      ],
      "type": "VEC3",
      "bufferView": 0,
      "byteOffset": 53304
    },
    {
      "name": "Stopsign_Cube.007-Mesh_0_indices",
      "componentType": 5123,
      "count": 36,
      "min": [
        0
      ],
      "max": [
        23
      ],
      "type": "SCALAR",
      "bufferView": 2,
      "byteOffset": 0
    },
    {
      "name": "Cube.006-Mesh_positions",
      "componentType": 5126,
      "count": 82,
      "min": [
        2.817579984664917,
        -0.05286800116300583,
        1.5734050273895264
      ],
      "max": [
        2.920301914215088,
        0.8327119946479797,
        2.458983898162842
      ],
      "type": "VEC3",
      "bufferView": 0,
      "byteOffset": 288
    },
    {
      "name": "Cube.006-Mesh_normals",
      "componentType": 5126,
      "count": 82,
      "min": [
        -1,
        -1,
        -1
      ],
      "max": [
        1,
        1,
        1
      ],
      "type": "VEC3",
      "bufferView": 0,
      "byteOffset": 53592
    },
    {
      "name": "Cube.006-Mesh_0_indices",
      "componentType": 5123,
      "count": 240,
      "min": [
        0
      ],
      "max": [
        81
      ],
      "type": "SCALAR",
      "bufferView": 2,
      "byteOffset": 72
    },
    {
      "name": "Seats_Cube.005-Mesh_positions",
      "componentType": 5126,
      "count": 24,
      "min": [
        -3.770745038986206,
        -0.952709972858429,
        -0.9882000088691711
      ],
      "max": [
        -3.433666944503784,
        1.0472899675369263,
        1.0118000507354736
      ],
      "type": "VEC3",
      "bufferView": 0,
      "byteOffset": 1272
    },
    {
      "name": "Seats_Cube.005-Mesh_normals",
      "componentType": 5126,
      "count": 24,
      "min": [
        -1,
        -1,
        -1
      ],
      "max": [
        1,
        1,
        1
      ],
      "type": "VEC3",
      "bufferView": 0,
      "byteOffset": 54576
    },
    {
      "name": "Seats_Cube.005-Mesh_0_indices",
      "componentType": 5123,
      "count": 36,
      "min": [
        0
      ],
      "max": [
        23
      ],
      "type": "SCALAR",
      "bufferView": 2,
      "byteOffset": 552
    },
    {
      "name": "Cube.004-Mesh_positions",
      "componentType": 5126,
      "count": 24,
      "min": [
        -2.270745038986206,
        -0.952709972858429,
        -0.9882000088691711
      ],
      "max": [
        -1.9336669445037842,
        1.0472899675369263,
        1.0118000507354736
      ],
      "type": "VEC3",
      "bufferView": 0,
      "byteOffset": 1560
    },
    {
      "name": "Cube.004-Mesh_normals",
      "componentType": 5126,
      "count": 24,
      "min": [
        -1,
        -1,
        -1
      ],
      "max": [
        1,
        1,
        1
      ],
      "type": "VEC3",
      "bufferView": 0,
      "byteOffset": 54864
    },
    {
      "name": "Cube.004-Mesh_0_indices",
      "componentType": 5123,
      "count": 36,
      "min": [
        0
      ],
      "max": [
        23
      ],
      "type": "SCALAR",
      "bufferView": 2,
      "byteOffset": 624
    },
    {
      "name": "Cube.003-Mesh_positions",
      "componentType": 5126,
      "count": 24,
      "min": [
        -0.7707449793815613,
        -1,
        -1
      ],
      "max": [
        -0.43366700410842896,
        1,
        1
      ],
      "type": "VEC3",
      "bufferView": 0,
      "byteOffset": 1848
    },
    {
      "name": "Cube.003-Mesh_normals",
      "componentType": 5126,
      "count": 24,
      "min": [
        -1,
        -1,
        -1
      ],
      "max": [
        1,
        1,
        1
      ],
      "type": "VEC3",
      "bufferView": 0,
      "byteOffset": 55152
    },
    {
      "name": "Cube.003-Mesh_0_indices",
      "componentType": 5123,
      "count": 36,
      "min": [
        0
      ],
      "max": [
        23
      ],
      "type": "SCALAR",
      "bufferView": 2,
      "byteOffset": 696
    },
    {
      "name": "Cube.002-Mesh_positions",
      "componentType": 5126,
      "count": 24,
      "min": [
        0.7292550206184387,
        -1,
        -1
      ],
      "max": [
        1.0663330554962158,
        1,
        1
      ],
      "type": "VEC3",
      "bufferView": 0,
      "byteOffset": 2136
    },
    {
      "name": "Cube.002-Mesh_normals",
      "componentType": 5126,
      "count": 24,
      "min": [
        -1,
        -1,
        -1
      ],
      "max": [
        1,
        1,
        1
      ],
      "type": "VEC3",
      "bufferView": 0,
      "byteOffset": 55440
    },
    {
      "name": "Cube.002-Mesh_0_indices",
      "componentType": 5123,
      "count": 36,
      "min": [
        0
      ],
      "max": [
        23
      ],
      "type": "SCALAR",
      "bufferView": 2,
      "byteOffset": 768
    },
    {
      "name": "Cube.001-Mesh_positions",
      "componentType": 5126,
      "count": 24,
      "min": [
        2.229254961013794,
        -1,
        -1
      ],
      "max": [
        2.566333055496216,
        1,
        1
      ],
      "type": "VEC3",
      "bufferView": 0,
      "byteOffset": 2424
    },
    {
      "name": "Cube.001-Mesh_normals",
      "componentType": 5126,
      "count": 24,
      "min": [
        -1,
        -1,
        -1
      ],
      "max": [
        1,
        1,
        1
      ],
      "type": "VEC3",
      "bufferView": 0,
      "byteOffset": 55728
    },
    {
      "name": "Cube.001-Mesh_0_indices",
      "componentType": 5123,
      "count": 36,
      "min": [
        0
      ],
      "max": [
        23
      ],
      "type": "SCALAR",
      "bufferView": 2,
      "byteOffset": 840
    },
    {
      "name": "Cube-Mesh_positions",
      "componentType": 5126,
      "count": 888,
      "min": [
        -4.484230995178223,
        -1.3015270233154297,
        -1.4745420217514038
      ],
      "max": [
        5.865935802459717,
        1.9481090307235718,
        1.4745420217514038
      ],
      "type": "VEC3",
      "bufferView": 0,
      "byteOffset": 2712
    },
    {
      "name": "Cube-Mesh_normals",
      "componentType": 5126,
      "count": 888,
      "min": [
        -1,
        -1,
        -1
      ],
      "max": [
        1,
        1,
        1
      ],
      "type": "VEC3",
      "bufferView": 0,
      "byteOffset": 56016
    },
    {
      "name": "Cube-Mesh_texcoords",
      "componentType": 5126,
      "count": 888,
      "min": [
        0.010599000379443169,
        0.010560999624431133
      ],
      "max": [
        0.9894009828567505,
        0.9894390106201172
      ],
      "type": "VEC2",
      "bufferView": 1,
      "byteOffset": 0
    },
    {
      "name": "Cube-Mesh_0_indices",
      "componentType": 5123,
      "count": 1896,
      "min": [
        0
      ],
      "max": [
        887
      ],
      "type": "SCALAR",
      "bufferView": 2,
      "byteOffset": 912
    },
    {
      "name": "TireRearRight_Cylinder.005-Mesh_positions",
      "componentType": 5126,
      "count": 704,
      "min": [
        -3.1981561183929443,
        -1.99747896194458,
        0.9562600255012512
      ],
      "max": [
        -1.6082669496536255,
        -0.40759000182151794,
        1.7501349449157715
      ],
      "type": "VEC3",
      "bufferView": 0,
      "byteOffset": 13368
    },
    {
      "name": "TireRearRight_Cylinder.005-Mesh_normals",
      "componentType": 5126,
      "count": 704,
      "min": [
        -0.9965999722480774,
        -0.9965999722480774,
        -1
      ],
      "max": [
        0.9965999722480774,
        0.9965999722480774,
        1
      ],
      "type": "VEC3",
      "bufferView": 0,
      "byteOffset": 66672
    },
    {
      "name": "TireRearRight_Cylinder.005-Mesh_0_indices",
      "componentType": 5123,
      "count": 1140,
      "min": [
        0
      ],
      "max": [
        703
      ],
      "type": "SCALAR",
      "bufferView": 2,
      "byteOffset": 4704
    },
    {
      "name": "RimRearRight_Cylinder.006-Mesh_positions",
      "componentType": 5126,
      "count": 128,
      "min": [
        -2.8565030097961426,
        -1.6558250188827515,
        1.5520880222320557
      ],
      "max": [
        -1.9499200582504272,
        -0.7492430210113525,
        1.6720830202102661
      ],
      "type": "VEC3",
      "bufferView": 0,
      "byteOffset": 21816
    },
    {
      "name": "RimRearRight_Cylinder.006-Mesh_normals",
      "componentType": 5126,
      "count": 128,
      "min": [
        -0.44699999690055847,
        -0.44699999690055847,
        0.8945000171661377
      ],
      "max": [
        0.44699999690055847,
        0.44699999690055847,
        1
      ],
      "type": "VEC3",
      "bufferView": 0,
      "byteOffset": 75120
    },
    {
      "name": "RimRearRight_Cylinder.006-Mesh_0_indices",
      "componentType": 5123,
      "count": 288,
      "min": [
        0
      ],
      "max": [
        127
      ],
      "type": "SCALAR",
      "bufferView": 2,
      "byteOffset": 6984
    },
    {
      "name": "TireRearLeft_Cylinder.003-Mesh_positions",
      "componentType": 5126,
      "count": 704,
      "min": [
        -3.2111940383911133,
        -2.0105159282684326,
        -1.7701510190963745
      ],
      "max": [
        -1.595229983329773,
        -0.39455199241638184,
        -0.9762759804725647
      ],
      "type": "VEC3",
      "bufferView": 0,
      "byteOffset": 23352
    },
    {
      "name": "TireRearLeft_Cylinder.003-Mesh_normals",
      "componentType": 5126,
      "count": 704,
      "min": [
        -0.9998999834060669,
        -0.9998999834060669,
        -1
      ],
      "max": [
        0.9998999834060669,
        0.9998999834060669,
        1
      ],
      "type": "VEC3",
      "bufferView": 0,
      "byteOffset": 76656
    },
    {
      "name": "TireRearLeft_Cylinder.003-Mesh_0_indices",
      "componentType": 5123,
      "count": 1140,
      "min": [
        0
      ],
      "max": [
        703
      ],
      "type": "SCALAR",
      "bufferView": 2,
      "byteOffset": 7560
    },
    {
      "name": "RimRearLeft_Cylinder.004-Mesh_positions",
      "componentType": 5126,
      "count": 128,
      "min": [
        -2.8565030097961426,
        -1.6558250188827515,
        -1.6920989751815796
      ],
      "max": [
        -1.9499200582504272,
        -0.7492430210113525,
        -1.5721039772033691
      ],
      "type": "VEC3",
      "bufferView": 0,
      "byteOffset": 31800
    },
    {
      "name": "RimRearLeft_Cylinder.004-Mesh_normals",
      "componentType": 5126,
      "count": 128,
      "min": [
        -0.44699999690055847,
        -0.44699999690055847,
        -1
      ],
      "max": [
        0.44699999690055847,
        0.44699999690055847,
        -0.8945000171661377
      ],
      "type": "VEC3",
      "bufferView": 0,
      "byteOffset": 85104
    },
    {
      "name": "RimRearLeft_Cylinder.004-Mesh_0_indices",
      "componentType": 5123,
      "count": 288,
      "min": [
        0
      ],
      "max": [
        127
      ],
      "type": "SCALAR",
      "bufferView": 2,
      "byteOffset": 9840
    },
    {
      "name": "TireFrontLeft_Cylinder.001-Mesh_positions",
      "componentType": 5126,
      "count": 704,
      "min": [
        3.797900915145874,
        -2.0105159282684326,
        -1.7701510190963745
      ],
      "max": [
        5.413865089416504,
        -0.39455199241638184,
        -0.9762759804725647
      ],
      "type": "VEC3",
      "bufferView": 0,
      "byteOffset": 33336
    },
    {
      "name": "TireFrontLeft_Cylinder.001-Mesh_normals",
      "componentType": 5126,
      "count": 704,
      "min": [
        -0.9998999834060669,
        -0.9998999834060669,
        -1
      ],
      "max": [
        0.9998999834060669,
        0.9998999834060669,
        1
      ],
      "type": "VEC3",
      "bufferView": 0,
      "byteOffset": 86640
    },
    {
      "name": "TireFrontLeft_Cylinder.001-Mesh_0_indices",
      "componentType": 5123,
      "count": 1140,
      "min": [
        0
      ],
      "max": [
        703
      ],
      "type": "SCALAR",
      "bufferView": 2,
      "byteOffset": 10416
    },
    {
      "name": "RimFrontLeft_Cylinder.002-Mesh_positions",
      "componentType": 5126,
      "count": 128,
      "min": [
        4.152591228485107,
        -1.6558250188827515,
        -1.6920989751815796
      ],
      "max": [
        5.059174060821533,
        -0.7492430210113525,
        -1.5721039772033691
      ],
      "type": "VEC3",
      "bufferView": 0,
      "byteOffset": 41784
    },
    {
      "name": "RimFrontLeft_Cylinder.002-Mesh_normals",
      "componentType": 5126,
      "count": 128,
      "min": [
        -0.44699999690055847,
        -0.44699999690055847,
        -1
      ],
      "max": [
        0.44699999690055847,
        0.44699999690055847,
        -0.8945000171661377
      ],
      "type": "VEC3",
      "bufferView": 0,
      "byteOffset": 95088
    },
    {
      "name": "RimFrontLeft_Cylinder.002-Mesh_0_indices",
      "componentType": 5123,
      "count": 288,
      "min": [
        0
      ],
      "max": [
        127
      ],
      "type": "SCALAR",
      "bufferView": 2,
      "byteOffset": 12696
    },
    {
      "name": "TireFrontRight_Cylinder.010-Mesh_positions",
      "componentType": 5126,
      "count": 704,
      "min": [
        3.8109378814697266,
        -1.99747896194458,
        0.9562600255012512
      ],
      "max": [
        5.400826930999756,
        -0.40759000182151794,
        1.7501349449157715
      ],
      "type": "VEC3",
      "bufferView": 0,
      "byteOffset": 43320
    },
    {
      "name": "TireFrontRight_Cylinder.010-Mesh_normals",
      "componentType": 5126,
      "count": 704,
      "min": [
        -0.9965999722480774,
        -0.9965999722480774,
        -1
      ],
      "max": [
        0.9965999722480774,
        0.9965999722480774,
        1
      ],
      "type": "VEC3",
      "bufferView": 0,
      "byteOffset": 96624
    },
    {
      "name": "TireFrontRight_Cylinder.010-Mesh_0_indices",
      "componentType": 5123,
      "count": 1140,
      "min": [
        0
      ],
      "max": [
        703
      ],
      "type": "SCALAR",
      "bufferView": 2,
      "byteOffset": 13272
    },
    {
      "name": "RimFrontRight_Cylinder.000-Mesh_positions",
      "componentType": 5126,
      "count": 128,
      "min": [
        4.152591228485107,
        -1.6558250188827515,
        1.5520880222320557
      ],
      "max": [
        5.059174060821533,
        -0.7492430210113525,
        1.6720830202102661
      ],
      "type": "VEC3",
      "bufferView": 0,
      "byteOffset": 51768
    },
    {
      "name": "RimFrontRight_Cylinder.000-Mesh_normals",
      "componentType": 5126,
      "count": 128,
      "min": [
        -0.44699999690055847,
        -0.44699999690055847,
        0.8945000171661377
      ],
      "max": [
        0.44699999690055847,
        0.44699999690055847,
        1
      ],
      "type": "VEC3",
      "bufferView": 0,
      "byteOffset": 105072
    },
    {
      "name": "RimFrontRight_Cylinder.000-Mesh_0_indices",
      "componentType": 5123,
      "count": 288,
      "min": [
        0
      ],
      "max": [
        127
      ],
      "type": "SCALAR",
      "bufferView": 2,
      "byteOffset": 15552
    }
  ],
  "asset": {
    "generator": "obj2gltf",
    "version": "2.0"
  },
  "buffers": [
    {
      "name": "Bus003",
      "byteLength": 129840,
      "uri": "data:application/octet-stream;base64,"
    }
  ],
  "bufferViews": [
    {
      "name": "bufferView_0",
      "buffer": 0,
      "byteLength": 106608,
      "byteOffset": 0,
      "byteStride": 12,
      "target": 34962
    },
    {
      "name": "bufferView_1",
      "buffer": 0,
      "byteLength": 7104,
      "byteOffset": 106608,
      "byteStride": 8,
      "target": 34962
    },
    {
      "name": "bufferView_2",
      "buffer": 0,
      "byteLength": 16128,
      "byteOffset": 113712,
      "target": 34963
    }
  ],
  "materials": [
    {
      "name": "Black",
      "pbrMetallicRoughness": {
        "baseColorFactor": [
          0,
          0,
          0,
          1
        ],
        "metallicFactor": 0,
        "roughnessFactor": 0.903921569
      },
      "emissiveFactor": [
        0,
        0,
        0
      ],
      "alphaMode": "OPAQUE",
      "doubleSided": false
    },
    {
      "name": "Material",
      "pbrMetallicRoughness": {
        "baseColorFactor": [
          0.64,
          0.64,
          0.64,
          1
        ],
        "metallicFactor": 0,
        "roughnessFactor": 0.903921569
      },
      "emissiveFactor": [
        0,
        0,
        0
      ],
      "alphaMode": "OPAQUE",
      "doubleSided": false
    },
    {
      "name": "Material.003",
      "pbrMetallicRoughness": {
        "baseColorFactor": [
          0.64,
          0.64,
          0.64,
          1
        ],
        "metallicFactor": 0,
        "roughnessFactor": 0.903921569
      },
      "emissiveFactor": [
        0,
        0,
        0
      ],
      "alphaMode": "OPAQUE",
      "doubleSided": false
    },
    {
      "name": "SILVER",
      "pbrMetallicRoughness": {
        "baseColorFactor": [
          0.8,
          0.8,
          0.8,
          1
        ],
        "metallicFactor": 0,
        "roughnessFactor": 0.903921569
      },
      "emissiveFactor": [
        0,
        0,
        0
      ],
      "alphaMode": "OPAQUE",
      "doubleSided": false
    }
  ],
  "meshes": [
    {
      "name": "Stopsign_Cube.007-Mesh",
      "primitives": [
        {
          "attributes": {
            "POSITION": 0,
            "NORMAL": 1
          },
          "indices": 2,
          "material": 0,
          "mode": 4
        }
      ]
    },
    {
      "name": "Cube.006-Mesh",
      "primitives": [
        {
          "attributes": {
            "POSITION": 3,
            "NORMAL": 4
          },
          "indices": 5,
          "material": 1,
          "mode": 4
        }
      ]
    },
    {
      "name": "Seats_Cube.005-Mesh",
      "primitives": [
        {
          "attributes": {
            "POSITION": 6,
            "NORMAL": 7
          },
          "indices": 8,
          "material": 0,
          "mode": 4
        }
      ]
    },
    {
      "name": "Cube.004-Mesh",
      "primitives": [
        {
          "attributes": {
            "POSITION": 9,
            "NORMAL": 10
          },
          "indices": 11,
          "material": 0,
          "mode": 4
        }
      ]
    },
    {
      "name": "Cube.003-Mesh",
      "primitives": [
        {
          "attributes": {
            "POSITION": 12,
            "NORMAL": 13
          },
          "indices": 14,
          "material": 0,
          "mode": 4
        }
      ]
    },
    {
      "name": "Cube.002-Mesh",
      "primitives": [
        {
          "attributes": {
            "POSITION": 15,
            "NORMAL": 16
          },
          "indices": 17,
          "material": 0,
          "mode": 4
        }
      ]
    },
    {
      "name": "Cube.001-Mesh",
      "primitives": [
        {
          "attributes": {
            "POSITION": 18,
            "NORMAL": 19
          },
          "indices": 20,
          "material": 0,
          "mode": 4
        }
      ]
    },
    {
      "name": "Cube-Mesh",
      "primitives": [
        {
          "attributes": {
            "POSITION": 21,
            "NORMAL": 22,
            "TEXCOORD_0": 23
          },
          "indices": 24,
          "material": 2,
          "mode": 4
        }
      ]
    },
    {
      "name": "TireRearRight_Cylinder.005-Mesh",
      "primitives": [
        {
          "attributes": {
            "POSITION": 25,
            "NORMAL": 26
          },
          "indices": 27,
          "material": 0,
          "mode": 4
        }
      ]
    },
    {
      "name": "RimRearRight_Cylinder.006-Mesh",
      "primitives": [
        {
          "attributes": {
            "POSITION": 28,
            "NORMAL": 29
          },
          "indices": 30,
          "material": 3,
          "mode": 4
        }
      ]
    },
    {
      "name": "TireRearLeft_Cylinder.003-Mesh",
      "primitives": [
        {
          "attributes": {
            "POSITION": 31,
            "NORMAL": 32
          },
          "indices": 33,
          "material": 0,
          "mode": 4
        }
      ]
    },
    {
      "name": "RimRearLeft_Cylinder.004-Mesh",
      "primitives": [
        {
          "attributes": {
            "POSITION": 34,
            "NORMAL": 35
          },
          "indices": 36,
          "material": 3,
          "mode": 4
        }
      ]
    },
    {
      "name": "TireFrontLeft_Cylinder.001-Mesh",
      "primitives": [
        {
          "attributes": {
            "POSITION": 37,
            "NORMAL": 38
          },
          "indices": 39,
          "material": 0,
          "mode": 4
        }
      ]
    },
    {
      "name": "RimFrontLeft_Cylinder.002-Mesh",
      "primitives": [
        {
          "attributes": {
            "POSITION": 40,
            "NORMAL": 41
          },
          "indices": 42,
          "material": 3,
          "mode": 4
        }
      ]
    },
    {
      "name": "TireFrontRight_Cylinder.010-Mesh",
      "primitives": [
        {
          "attributes": {
            "POSITION": 43,
            "NORMAL": 44
          },
          "indices": 45,
          "material": 0,
          "mode": 4
        }
      ]
    },
    {
      "name": "RimFrontRight_Cylinder.000-Mesh",
      "primitives": [
        {
          "attributes": {
            "POSITION": 46,
            "NORMAL": 47
          },
          "indices": 48,
          "material": 3,
          "mode": 4
        }
      ]
    }
  ],
  "nodes": [
    {
      "name": "Stopsign_Cube.007",
      "mesh": 0
    },
    {
      "name": "Cube.006",
      "mesh": 1
    },
    {
      "name": "Seats_Cube.005",
      "mesh": 2
    },
    {
      "name": "Cube.004",
      "mesh": 3
    },
    {
      "name": "Cube.003",
      "mesh": 4
    },
    {
      "name": "Cube.002",
      "mesh": 5
    },
    {
      "name": "Cube.001",
      "mesh": 6
    },
    {
      "name": "Cube",
      "mesh": 7
    },
    {
      "name": "TireRearRight_Cylinder.005",
      "mesh": 8
    },
    {
      "name": "RimRearRight_Cylinder.006",
      "mesh": 9
    },
    {
      "name": "TireRearLeft_Cylinder.003",
      "mesh": 10
    },
    {
      "name": "RimRearLeft_Cylinder.004",
      "mesh": 11
    },
    {
      "name": "TireFrontLeft_Cylinder.001",
      "mesh": 12
    },
    {
      "name": "RimFrontLeft_Cylinder.002",
      "mesh": 13
    },
    {
      "name": "TireFrontRight_Cylinder.010",
      "mesh": 14
    },
    {
      "name": "RimFrontRight_Cylinder.000",
      "mesh": 15
    }
  ],
  "scene": 0,
  "scenes": [
    {
      "nodes": [
        0,
        1,
        2,
        3,
        4,
        5,
        6,
        7,
        8,
        9,
        10,
        11,
        12,
        13,
        14,
        15
      ]
    }
  ]
}
