{
  "accessors": [
    {
      "name": "Group16023.002-Mesh_positions",
      "componentType": 5126,
      "count": 7237,
      "min": [
        2.6858999729156494,
        1.3689090013504028,
        1.5123560428619385
      ],
      "max": [
        3.4873130321502686,
        1.822713017463684,
        2.0885589122772217
      ],
      "type": "VEC3",
      "bufferView": 0,
      "byteOffset": 0
    },
    {
      "name": "Group16023.002-Mesh_normals",
      "componentType": 5126,
      "count": 7237,
      "min": [
        -0.9983999729156494,
        -0.9995999932289124,
        -0.9998999834060669
      ],
      "max": [
        0.9929999709129333,
        0.9998999834060669,
        0.9998999834060669
      ],
      "type": "VEC3",
      "bufferView": 0,
      "byteOffset": 86844
    },
    {
      "name": "Group16023.002-Mesh_texcoords",
      "componentType": 5126,
      "count": 7237,
      "min": [
        0.0019499999471008778,
        0.36427998542785645
      ],
      "max": [
        0.9980400204658508,
        0.9980499744415283
      ],
      "type": "VEC2",
      "bufferView": 1,
      "byteOffset": 0
    },
    {
      "name": "Group16023.002-Mesh_0_indices",
      "componentType": 5123,
      "count": 41232,
      "min": [
        0
      ],
      "max": [
        7236
      ],
      "type": "SCALAR",
      "bufferView": 2,
      "byteOffset": 0
    }
  ],
  "asset": {
    "generator": "obj2gltf",
    "version": "2.0"
  },
  "buffers": [
    {
      "name": "right-hand",
      "byteLength": 560940,
      "uri": "data:application/octet-stream;base64,"
    }
  ],
  "bufferViews": [
    {
      "name": "bufferView_0",
      "buffer": 0,
      "byteLength": 173688,
      "byteOffset": 0,
      "byteStride": 12,
      "target": 34962
    },
    {
      "name": "bufferView_1",
      "buffer": 0,
      "byteLength": 57896,
      "byteOffset": 173688,
      "byteStride": 8,
      "target": 34962
    },
    {
      "name": "bufferView_2",
      "buffer": 0,
      "byteLength": 82464,
      "byteOffset": 231584,
      "target": 34963
    },
    {
      "buffer": 0,
      "byteOffset": 314048,
      "byteLength": 246891
    }
  ],
  "images": [
    {
      "name": "NAC_HandZ_DM",
      "mimeType": "image/jpeg",
      "bufferView": 3
    }
  ],
  "materials": [
    {
      "name": "defaultMat.002",
      "pbrMetallicRoughness": {
        "baseColorTexture": {
          "index": 0
        },
        "baseColorFactor": [
          1,
          1,
          1,
          1
        ],
        "metallicFactor": 0,
        "roughnessFactor": 0
      },
      "emissiveFactor": [
        0.2,
        0.2,
        0.2
      ],
      "alphaMode": "OPAQUE",
      "doubleSided": false
    }
  ],
  "meshes": [
    {
      "name": "Group16023.002-Mesh",
      "primitives": [
        {
          "attributes": {
            "POSITION": 0,
            "NORMAL": 1,
            "TEXCOORD_0": 2
          },
          "indices": 3,
          "material": 0,
          "mode": 4
        }
      ]
    }
  ],
  "nodes": [
    {
      "name": "Group16023.002",
      "mesh": 0
    }
  ],
  "samplers": [
    {
      "magFilter": 9729,
      "minFilter": 9986,
      "wrapS": 10497,
      "wrapT": 10497
    }
  ],
  "scene": 0,
  "scenes": [
    {
      "nodes": [
        0
      ]
    }
  ],
  "textures": [
    {
      "name": "NAC_HandZ_DM",
      "sampler": 0,
      "source": 0
    }
  ]
}
